<svg xmlns="http://www.w3.org/2000/svg" width="710" height="112" viewBox="0 0 710 112">
<style>
@keyframes flicker {
  0%, 100% { opacity: 0.25; }
  45% { opacity: 1; }
  60% { opacity: 1; }
}
.on { animation: flicker 2.6s ease-in-out infinite; }
</style>
<rect width="710" height="112" rx="6" fill="#0d1117"/>
<rect x="12" y="12" width="10" height="10" rx="2" fill="#161b22"/>
<rect x="25" y="12" width="10" height="10" rx="2" fill="#161b22"/>
<rect x="38" y="12" width="10" height="10" rx="2" fill="#161b22"/>
<rect class="on" style="animation-delay:0.0s" x="51" y="12" width="10" height="10" rx="2" fill="#39d353"/>
<rect class="on" style="animation-delay:0.045s" x="64" y="12" width="10" height="10" rx="2" fill="#39d353"/>
<rect class="on" style="animation-delay:0.09s" x="77" y="12" width="10" height="10" rx="2" fill="#39d353"/>
<rect class="on" style="animation-delay:0.135s" x="90" y="12" width="10" height="10" rx="2" fill="#39d353"/>
<rect x="103" y="12" width="10" height="10" rx="2" fill="#161b22"/>
<rect x="116" y="12" width="10" height="10" rx="2" fill="#161b22"/>
<rect class="on" style="animation-delay:0.27s" x="129" y="12" width="10" height="10" rx="2" fill="#39d353"/>
<rect class="on" style="animation-delay:0.315s" x="142" y="12" width="10" height="10" rx="2" fill="#39d353"/>
<rect class="on" style="animation-delay:0.36s" x="155" y="12" width="10" height="10" rx="2" fill="#39d353"/>
<rect class="on" style="animation-delay:0.405s" x="168" y="12" width="10" height="10" rx="2" fill="#39d353"/>
<rect x="181" y="12" width="10" height="10" rx="2" fill="#161b22"/>
<rect x="194" y="12" width="10" height="10" rx="2" fill="#161b22"/>
<rect x="207" y="12" width="10" height="10" rx="2" fill="#161b22"/>
<rect class="on" style="animation-delay:0.585s" x="220" y="12" width="10" height="10" rx="2" fill="#39d353"/>
<rect class="on" style="animation-delay:0.63s" x="233" y="12" width="10" height="10" rx="2" fill="#39d353"/>
<rect class="on" style="animation-delay:0.675s" x="246" y="12" width="10" height="10" rx="2" fill="#39d353"/>
<rect x="259" y="12" width="10" height="10" rx="2" fill="#161b22"/>
<rect x="272" y="12" width="10" height="10" rx="2" fill="#161b22"/>
<rect class="on" style="animation-delay:0.81s" x="285" y="12" width="10" height="10" rx="2" fill="#39d353"/>
<rect class="on" style="animation-delay:0.855s" x="298" y="12" width="10" height="10" rx="2" fill="#39d353"/>
<rect class="on" style="animation-delay:0.9s" x="311" y="12" width="10" height="10" rx="2" fill="#39d353"/>
<rect x="324" y="12" width="10" height="10" rx="2" fill="#161b22"/>
<rect x="337" y="12" width="10" height="10" rx="2" fill="#161b22"/>
<rect x="350" y="12" width="10" height="10" rx="2" fill="#161b22"/>
<rect class="on" style="animation-delay:1.08s" x="363" y="12" width="10" height="10" rx="2" fill="#39d353"/>
<rect x="376" y="12" width="10" height="10" rx="2" fill="#161b22"/>
<rect x="389" y="12" width="10" height="10" rx="2" fill="#161b22"/>
<rect x="402" y="12" width="10" height="10" rx="2" fill="#161b22"/>
<rect class="on" style="animation-delay:1.26s" x="415" y="12" width="10" height="10" rx="2" fill="#39d353"/>
<rect x="428" y="12" width="10" height="10" rx="2" fill="#161b22"/>
<rect x="441" y="12" width="10" height="10" rx="2" fill="#161b22"/>
<rect class="on" style="animation-delay:1.395s" x="454" y="12" width="10" height="10" rx="2" fill="#39d353"/>
<rect class="on" style="animation-delay:1.44s" x="467" y="12" width="10" height="10" rx="2" fill="#39d353"/>
<rect class="on" style="animation-delay:1.485s" x="480" y="12" width="10" height="10" rx="2" fill="#39d353"/>
<rect x="493" y="12" width="10" height="10" rx="2" fill="#161b22"/>
<rect x="506" y="12" width="10" height="10" rx="2" fill="#161b22"/>
<rect x="519" y="12" width="10" height="10" rx="2" fill="#161b22"/>
<rect class="on" style="animation-delay:1.665s" x="532" y="12" width="10" height="10" rx="2" fill="#39d353"/>
<rect class="on" style="animation-delay:1.71s" x="545" y="12" width="10" height="10" rx="2" fill="#39d353"/>
<rect class="on" style="animation-delay:1.755s" x="558" y="12" width="10" height="10" rx="2" fill="#39d353"/>
<rect class="on" style="animation-delay:1.8s" x="571" y="12" width="10" height="10" rx="2" fill="#39d353"/>
<rect x="584" y="12" width="10" height="10" rx="2" fill="#161b22"/>
<rect class="on" style="animation-delay:1.89s" x="597" y="12" width="10" height="10" rx="2" fill="#39d353"/>
<rect x="610" y="12" width="10" height="10" rx="2" fill="#161b22"/>
<rect x="623" y="12" width="10" height="10" rx="2" fill="#161b22"/>
<rect x="636" y="12" width="10" height="10" rx="2" fill="#161b22"/>
<rect class="on" style="animation-delay:2.07s" x="649" y="12" width="10" height="10" rx="2" fill="#39d353"/>
<rect x="662" y="12" width="10" height="10" rx="2" fill="#161b22"/>
<rect x="675" y="12" width="10" height="10" rx="2" fill="#161b22"/>
<rect x="688" y="12" width="10" height="10" rx="2" fill="#161b22"/>
<rect x="12" y="25" width="10" height="10" rx="2" fill="#161b22"/>
<rect x="25" y="25" width="10" height="10" rx="2" fill="#161b22"/>
<rect x="38" y="25" width="10" height="10" rx="2" fill="#161b22"/>
<rect class="on" style="animation-delay:0.0s" x="51" y="25" width="10" height="10" rx="2" fill="#39d353"/>
<rect x="64" y="25" width="10" height="10" rx="2" fill="#161b22"/>
<rect x="77" y="25" width="10" height="10" rx="2" fill="#161b22"/>
<rect x="90" y="25" width="10" height="10" rx="2" fill="#161b22"/>
<rect class="on" style="animation-delay:0.18s" x="103" y="25" width="10" height="10" rx="2" fill="#39d353"/>
<rect x="116" y="25" width="10" height="10" rx="2" fill="#161b22"/>
<rect class="on" style="animation-delay:0.27s" x="129" y="25" width="10" height="10" rx="2" fill="#39d353"/>
<rect x="142" y="25" width="10" height="10" rx="2" fill="#161b22"/>
<rect x="155" y="25" width="10" height="10" rx="2" fill="#161b22"/>
<rect x="168" y="25" width="10" height="10" rx="2" fill="#161b22"/>
<rect class="on" style="animation-delay:0.45s" x="181" y="25" width="10" height="10" rx="2" fill="#39d353"/>
<rect x="194" y="25" width="10" height="10" rx="2" fill="#161b22"/>
<rect class="on" style="animation-delay:0.54s" x="207" y="25" width="10" height="10" rx="2" fill="#39d353"/>
<rect x="220" y="25" width="10" height="10" rx="2" fill="#161b22"/>
<rect x="233" y="25" width="10" height="10" rx="2" fill="#161b22"/>
<rect x="246" y="25" width="10" height="10" rx="2" fill="#161b22"/>
<rect class="on" style="animation-delay:0.72s" x="259" y="25" width="10" height="10" rx="2" fill="#39d353"/>
<rect x="272" y="25" width="10" height="10" rx="2" fill="#161b22"/>
<rect class="on" style="animation-delay:0.81s" x="285" y="25" width="10" height="10" rx="2" fill="#39d353"/>
<rect x="298" y="25" width="10" height="10" rx="2" fill="#161b22"/>
<rect x="311" y="25" width="10" height="10" rx="2" fill="#161b22"/>
<rect class="on" style="animation-delay:0.945s" x="324" y="25" width="10" height="10" rx="2" fill="#39d353"/>
<rect x="337" y="25" width="10" height="10" rx="2" fill="#161b22"/>
<rect x="350" y="25" width="10" height="10" rx="2" fill="#161b22"/>
<rect class="on" style="animation-delay:1.08s" x="363" y="25" width="10" height="10" rx="2" fill="#39d353"/>
<rect x="376" y="25" width="10" height="10" rx="2" fill="#161b22"/>
<rect x="389" y="25" width="10" height="10" rx="2" fill="#161b22"/>
<rect x="402" y="25" width="10" height="10" rx="2" fill="#161b22"/>
<rect class="on" style="animation-delay:1.26s" x="415" y="25" width="10" height="10" rx="2" fill="#39d353"/>
<rect x="428" y="25" width="10" height="10" rx="2" fill="#161b22"/>
<rect class="on" style="animation-delay:1.35s" x="441" y="25" width="10" height="10" rx="2" fill="#39d353"/>
<rect x="454" y="25" width="10" height="10" rx="2" fill="#161b22"/>
<rect x="467" y="25" width="10" height="10" rx="2" fill="#161b22"/>
<rect x="480" y="25" width="10" height="10" rx="2" fill="#161b22"/>
<rect class="on" style="animation-delay:1.53s" x="493" y="25" width="10" height="10" rx="2" fill="#39d353"/>
<rect x="506" y="25" width="10" height="10" rx="2" fill="#161b22"/>
<rect class="on" style="animation-delay:1.62s" x="519" y="25" width="10" height="10" rx="2" fill="#39d353"/>
<rect x="532" y="25" width="10" height="10" rx="2" fill="#161b22"/>
<rect x="545" y="25" width="10" height="10" rx="2" fill="#161b22"/>
<rect x="558" y="25" width="10" height="10" rx="2" fill="#161b22"/>
<rect x="571" y="25" width="10" height="10" rx="2" fill="#161b22"/>
<rect x="584" y="25" width="10" height="10" rx="2" fill="#161b22"/>
<rect class="on" style="animation-delay:1.89s" x="597" y="25" width="10" height="10" rx="2" fill="#39d353"/>
<rect x="610" y="25" width="10" height="10" rx="2" fill="#161b22"/>
<rect x="623" y="25" width="10" height="10" rx="2" fill="#161b22"/>
<rect x="636" y="25" width="10" height="10" rx="2" fill="#161b22"/>
<rect class="on" style="animation-delay:2.07s" x="649" y="25" width="10" height="10" rx="2" fill="#39d353"/>
<rect x="662" y="25" width="10" height="10" rx="2" fill="#161b22"/>
<rect x="675" y="25" width="10" height="10" rx="2" fill="#161b22"/>
<rect x="688" y="25" width="10" height="10" rx="2" fill="#161b22"/>
<rect x="12" y="38" width="10" height="10" rx="2" fill="#161b22"/>
<rect x="25" y="38" width="10" height="10" rx="2" fill="#161b22"/>
<rect x="38" y="38" width="10" height="10" rx="2" fill="#161b22"/>
<rect class="on" style="animation-delay:0.0s" x="51" y="38" width="10" height="10" rx="2" fill="#39d353"/>
<rect x="64" y="38" width="10" height="10" rx="2" fill="#161b22"/>
<rect x="77" y="38" width="10" height="10" rx="2" fill="#161b22"/>
<rect x="90" y="38" width="10" height="10" rx="2" fill="#161b22"/>
<rect class="on" style="animation-delay:0.18s" x="103" y="38" width="10" height="10" rx="2" fill="#39d353"/>
<rect x="116" y="38" width="10" height="10" rx="2" fill="#161b22"/>
<rect class="on" style="animation-delay:0.27s" x="129" y="38" width="10" height="10" rx="2" fill="#39d353"/>
<rect x="142" y="38" width="10" height="10" rx="2" fill="#161b22"/>
<rect x="155" y="38" width="10" height="10" rx="2" fill="#161b22"/>
<rect x="168" y="38" width="10" height="10" rx="2" fill="#161b22"/>
<rect class="on" style="animation-delay:0.45s" x="181" y="38" width="10" height="10" rx="2" fill="#39d353"/>
<rect x="194" y="38" width="10" height="10" rx="2" fill="#161b22"/>
<rect class="on" style="animation-delay:0.54s" x="207" y="38" width="10" height="10" rx="2" fill="#39d353"/>
<rect x="220" y="38" width="10" height="10" rx="2" fill="#161b22"/>
<rect x="233" y="38" width="10" height="10" rx="2" fill="#161b22"/>
<rect x="246" y="38" width="10" height="10" rx="2" fill="#161b22"/>
<rect class="on" style="animation-delay:0.72s" x="259" y="38" width="10" height="10" rx="2" fill="#39d353"/>
<rect x="272" y="38" width="10" height="10" rx="2" fill="#161b22"/>
<rect class="on" style="animation-delay:0.81s" x="285" y="38" width="10" height="10" rx="2" fill="#39d353"/>
<rect x="298" y="38" width="10" height="10" rx="2" fill="#161b22"/>
<rect x="311" y="38" width="10" height="10" rx="2" fill="#161b22"/>
<rect x="324" y="38" width="10" height="10" rx="2" fill="#161b22"/>
<rect class="on" style="animation-delay:0.99s" x="337" y="38" width="10" height="10" rx="2" fill="#39d353"/>
<rect x="350" y="38" width="10" height="10" rx="2" fill="#161b22"/>
<rect class="on" style="animation-delay:1.08s" x="363" y="38" width="10" height="10" rx="2" fill="#39d353"/>
<rect x="376" y="38" width="10" height="10" rx="2" fill="#161b22"/>
<rect x="389" y="38" width="10" height="10" rx="2" fill="#161b22"/>
<rect x="402" y="38" width="10" height="10" rx="2" fill="#161b22"/>
<rect class="on" style="animation-delay:1.26s" x="415" y="38" width="10" height="10" rx="2" fill="#39d353"/>
<rect x="428" y="38" width="10" height="10" rx="2" fill="#161b22"/>
<rect class="on" style="animation-delay:1.35s" x="441" y="38" width="10" height="10" rx="2" fill="#39d353"/>
<rect x="454" y="38" width="10" height="10" rx="2" fill="#161b22"/>
<rect x="467" y="38" width="10" height="10" rx="2" fill="#161b22"/>
<rect x="480" y="38" width="10" height="10" rx="2" fill="#161b22"/>
<rect class="on" style="animation-delay:1.53s" x="493" y="38" width="10" height="10" rx="2" fill="#39d353"/>
<rect x="506" y="38" width="10" height="10" rx="2" fill="#161b22"/>
<rect class="on" style="animation-delay:1.62s" x="519" y="38" width="10" height="10" rx="2" fill="#39d353"/>
<rect x="532" y="38" width="10" height="10" rx="2" fill="#161b22"/>
<rect x="545" y="38" width="10" height="10" rx="2" fill="#161b22"/>
<rect x="558" y="38" width="10" height="10" rx="2" fill="#161b22"/>
<rect x="571" y="38" width="10" height="10" rx="2" fill="#161b22"/>
<rect x="584" y="38" width="10" height="10" rx="2" fill="#161b22"/>
<rect class="on" style="animation-delay:1.89s" x="597" y="38" width="10" height="10" rx="2" fill="#39d353"/>
<rect x="610" y="38" width="10" height="10" rx="2" fill="#161b22"/>
<rect x="623" y="38" width="10" height="10" rx="2" fill="#161b22"/>
<rect x="636" y="38" width="10" height="10" rx="2" fill="#161b22"/>
<rect class="on" style="animation-delay:2.07s" x="649" y="38" width="10" height="10" rx="2" fill="#39d353"/>
<rect x="662" y="38" width="10" height="10" rx="2" fill="#161b22"/>
<rect x="675" y="38" width="10" height="10" rx="2" fill="#161b22"/>
<rect x="688" y="38" width="10" height="10" rx="2" fill="#161b22"/>
<rect x="12" y="51" width="10" height="10" rx="2" fill="#161b22"/>
<rect x="25" y="51" width="10" height="10" rx="2" fill="#161b22"/>
<rect x="38" y="51" width="10" height="10" rx="2" fill="#161b22"/>
<rect class="on" style="animation-delay:0.0s" x="51" y="51" width="10" height="10" rx="2" fill="#39d353"/>
<rect class="on" style="animation-delay:0.045s" x="64" y="51" width="10" height="10" rx="2" fill="#39d353"/>
<rect class="on" style="animation-delay:0.09s" x="77" y="51" width="10" height="10" rx="2" fill="#39d353"/>
<rect class="on" style="animation-delay:0.135s" x="90" y="51" width="10" height="10" rx="2" fill="#39d353"/>
<rect x="103" y="51" width="10" height="10" rx="2" fill="#161b22"/>
<rect x="116" y="51" width="10" height="10" rx="2" fill="#161b22"/>
<rect class="on" style="animation-delay:0.27s" x="129" y="51" width="10" height="10" rx="2" fill="#39d353"/>
<rect class="on" style="animation-delay:0.315s" x="142" y="51" width="10" height="10" rx="2" fill="#39d353"/>
<rect class="on" style="animation-delay:0.36s" x="155" y="51" width="10" height="10" rx="2" fill="#39d353"/>
<rect class="on" style="animation-delay:0.405s" x="168" y="51" width="10" height="10" rx="2" fill="#39d353"/>
<rect x="181" y="51" width="10" height="10" rx="2" fill="#161b22"/>
<rect x="194" y="51" width="10" height="10" rx="2" fill="#161b22"/>
<rect class="on" style="animation-delay:0.54s" x="207" y="51" width="10" height="10" rx="2" fill="#39d353"/>
<rect x="220" y="51" width="10" height="10" rx="2" fill="#161b22"/>
<rect x="233" y="51" width="10" height="10" rx="2" fill="#161b22"/>
<rect x="246" y="51" width="10" height="10" rx="2" fill="#161b22"/>
<rect class="on" style="animation-delay:0.72s" x="259" y="51" width="10" height="10" rx="2" fill="#39d353"/>
<rect x="272" y="51" width="10" height="10" rx="2" fill="#161b22"/>
<rect class="on" style="animation-delay:0.81s" x="285" y="51" width="10" height="10" rx="2" fill="#39d353"/>
<rect x="298" y="51" width="10" height="10" rx="2" fill="#161b22"/>
<rect x="311" y="51" width="10" height="10" rx="2" fill="#161b22"/>
<rect x="324" y="51" width="10" height="10" rx="2" fill="#161b22"/>
<rect class="on" style="animation-delay:0.99s" x="337" y="51" width="10" height="10" rx="2" fill="#39d353"/>
<rect x="350" y="51" width="10" height="10" rx="2" fill="#161b22"/>
<rect class="on" style="animation-delay:1.08s" x="363" y="51" width="10" height="10" rx="2" fill="#39d353"/>
<rect class="on" style="animation-delay:1.125s" x="376" y="51" width="10" height="10" rx="2" fill="#39d353"/>
<rect class="on" style="animation-delay:1.17s" x="389" y="51" width="10" height="10" rx="2" fill="#39d353"/>
<rect class="on" style="animation-delay:1.215s" x="402" y="51" width="10" height="10" rx="2" fill="#39d353"/>
<rect class="on" style="animation-delay:1.26s" x="415" y="51" width="10" height="10" rx="2" fill="#39d353"/>
<rect x="428" y="51" width="10" height="10" rx="2" fill="#161b22"/>
<rect class="on" style="animation-delay:1.35s" x="441" y="51" width="10" height="10" rx="2" fill="#39d353"/>
<rect x="454" y="51" width="10" height="10" rx="2" fill="#161b22"/>
<rect x="467" y="51" width="10" height="10" rx="2" fill="#161b22"/>
<rect x="480" y="51" width="10" height="10" rx="2" fill="#161b22"/>
<rect class="on" style="animation-delay:1.53s" x="493" y="51" width="10" height="10" rx="2" fill="#39d353"/>
<rect x="506" y="51" width="10" height="10" rx="2" fill="#161b22"/>
<rect x="519" y="51" width="10" height="10" rx="2" fill="#161b22"/>
<rect class="on" style="animation-delay:1.665s" x="532" y="51" width="10" height="10" rx="2" fill="#39d353"/>
<rect class="on" style="animation-delay:1.71s" x="545" y="51" width="10" height="10" rx="2" fill="#39d353"/>
<rect class="on" style="animation-delay:1.755s" x="558" y="51" width="10" height="10" rx="2" fill="#39d353"/>
<rect x="571" y="51" width="10" height="10" rx="2" fill="#161b22"/>
<rect x="584" y="51" width="10" height="10" rx="2" fill="#161b22"/>
<rect class="on" style="animation-delay:1.89s" x="597" y="51" width="10" height="10" rx="2" fill="#39d353"/>
<rect class="on" style="animation-delay:1.935s" x="610" y="51" width="10" height="10" rx="2" fill="#39d353"/>
<rect class="on" style="animation-delay:1.98s" x="623" y="51" width="10" height="10" rx="2" fill="#39d353"/>
<rect class="on" style="animation-delay:2.025s" x="636" y="51" width="10" height="10" rx="2" fill="#39d353"/>
<rect class="on" style="animation-delay:2.07s" x="649" y="51" width="10" height="10" rx="2" fill="#39d353"/>
<rect x="662" y="51" width="10" height="10" rx="2" fill="#161b22"/>
<rect x="675" y="51" width="10" height="10" rx="2" fill="#161b22"/>
<rect x="688" y="51" width="10" height="10" rx="2" fill="#161b22"/>
<rect x="12" y="64" width="10" height="10" rx="2" fill="#161b22"/>
<rect x="25" y="64" width="10" height="10" rx="2" fill="#161b22"/>
<rect x="38" y="64" width="10" height="10" rx="2" fill="#161b22"/>
<rect class="on" style="animation-delay:0.0s" x="51" y="64" width="10" height="10" rx="2" fill="#39d353"/>
<rect x="64" y="64" width="10" height="10" rx="2" fill="#161b22"/>
<rect x="77" y="64" width="10" height="10" rx="2" fill="#161b22"/>
<rect x="90" y="64" width="10" height="10" rx="2" fill="#161b22"/>
<rect x="103" y="64" width="10" height="10" rx="2" fill="#161b22"/>
<rect x="116" y="64" width="10" height="10" rx="2" fill="#161b22"/>
<rect class="on" style="animation-delay:0.27s" x="129" y="64" width="10" height="10" rx="2" fill="#39d353"/>
<rect x="142" y="64" width="10" height="10" rx="2" fill="#161b22"/>
<rect class="on" style="animation-delay:0.36s" x="155" y="64" width="10" height="10" rx="2" fill="#39d353"/>
<rect x="168" y="64" width="10" height="10" rx="2" fill="#161b22"/>
<rect x="181" y="64" width="10" height="10" rx="2" fill="#161b22"/>
<rect x="194" y="64" width="10" height="10" rx="2" fill="#161b22"/>
<rect class="on" style="animation-delay:0.54s" x="207" y="64" width="10" height="10" rx="2" fill="#39d353"/>
<rect x="220" y="64" width="10" height="10" rx="2" fill="#161b22"/>
<rect x="233" y="64" width="10" height="10" rx="2" fill="#161b22"/>
<rect x="246" y="64" width="10" height="10" rx="2" fill="#161b22"/>
<rect class="on" style="animation-delay:0.72s" x="259" y="64" width="10" height="10" rx="2" fill="#39d353"/>
<rect x="272" y="64" width="10" height="10" rx="2" fill="#161b22"/>
<rect class="on" style="animation-delay:0.81s" x="285" y="64" width="10" height="10" rx="2" fill="#39d353"/>
<rect x="298" y="64" width="10" height="10" rx="2" fill="#161b22"/>
<rect x="311" y="64" width="10" height="10" rx="2" fill="#161b22"/>
<rect x="324" y="64" width="10" height="10" rx="2" fill="#161b22"/>
<rect class="on" style="animation-delay:0.99s" x="337" y="64" width="10" height="10" rx="2" fill="#39d353"/>
<rect x="350" y="64" width="10" height="10" rx="2" fill="#161b22"/>
<rect class="on" style="animation-delay:1.08s" x="363" y="64" width="10" height="10" rx="2" fill="#39d353"/>
<rect x="376" y="64" width="10" height="10" rx="2" fill="#161b22"/>
<rect x="389" y="64" width="10" height="10" rx="2" fill="#161b22"/>
<rect x="402" y="64" width="10" height="10" rx="2" fill="#161b22"/>
<rect class="on" style="animation-delay:1.26s" x="415" y="64" width="10" height="10" rx="2" fill="#39d353"/>
<rect x="428" y="64" width="10" height="10" rx="2" fill="#161b22"/>
<rect class="on" style="animation-delay:1.35s" x="441" y="64" width="10" height="10" rx="2" fill="#39d353"/>
<rect x="454" y="64" width="10" height="10" rx="2" fill="#161b22"/>
<rect x="467" y="64" width="10" height="10" rx="2" fill="#161b22"/>
<rect x="480" y="64" width="10" height="10" rx="2" fill="#161b22"/>
<rect class="on" style="animation-delay:1.53s" x="493" y="64" width="10" height="10" rx="2" fill="#39d353"/>
<rect x="506" y="64" width="10" height="10" rx="2" fill="#161b22"/>
<rect x="519" y="64" width="10" height="10" rx="2" fill="#161b22"/>
<rect x="532" y="64" width="10" height="10" rx="2" fill="#161b22"/>
<rect x="545" y="64" width="10" height="10" rx="2" fill="#161b22"/>
<rect x="558" y="64" width="10" height="10" rx="2" fill="#161b22"/>
<rect class="on" style="animation-delay:1.8s" x="571" y="64" width="10" height="10" rx="2" fill="#39d353"/>
<rect x="584" y="64" width="10" height="10" rx="2" fill="#161b22"/>
<rect class="on" style="animation-delay:1.89s" x="597" y="64" width="10" height="10" rx="2" fill="#39d353"/>
<rect x="610" y="64" width="10" height="10" rx="2" fill="#161b22"/>
<rect x="623" y="64" width="10" height="10" rx="2" fill="#161b22"/>
<rect x="636" y="64" width="10" height="10" rx="2" fill="#161b22"/>
<rect class="on" style="animation-delay:2.07s" x="649" y="64" width="10" height="10" rx="2" fill="#39d353"/>
<rect x="662" y="64" width="10" height="10" rx="2" fill="#161b22"/>
<rect x="675" y="64" width="10" height="10" rx="2" fill="#161b22"/>
<rect x="688" y="64" width="10" height="10" rx="2" fill="#161b22"/>
<rect x="12" y="77" width="10" height="10" rx="2" fill="#161b22"/>
<rect x="25" y="77" width="10" height="10" rx="2" fill="#161b22"/>
<rect x="38" y="77" width="10" height="10" rx="2" fill="#161b22"/>
<rect class="on" style="animation-delay:0.0s" x="51" y="77" width="10" height="10" rx="2" fill="#39d353"/>
<rect x="64" y="77" width="10" height="10" rx="2" fill="#161b22"/>
<rect x="77" y="77" width="10" height="10" rx="2" fill="#161b22"/>
<rect x="90" y="77" width="10" height="10" rx="2" fill="#161b22"/>
<rect x="103" y="77" width="10" height="10" rx="2" fill="#161b22"/>
<rect x="116" y="77" width="10" height="10" rx="2" fill="#161b22"/>
<rect class="on" style="animation-delay:0.27s" x="129" y="77" width="10" height="10" rx="2" fill="#39d353"/>
<rect x="142" y="77" width="10" height="10" rx="2" fill="#161b22"/>
<rect x="155" y="77" width="10" height="10" rx="2" fill="#161b22"/>
<rect class="on" style="animation-delay:0.405s" x="168" y="77" width="10" height="10" rx="2" fill="#39d353"/>
<rect x="181" y="77" width="10" height="10" rx="2" fill="#161b22"/>
<rect x="194" y="77" width="10" height="10" rx="2" fill="#161b22"/>
<rect class="on" style="animation-delay:0.54s" x="207" y="77" width="10" height="10" rx="2" fill="#39d353"/>
<rect x="220" y="77" width="10" height="10" rx="2" fill="#161b22"/>
<rect x="233" y="77" width="10" height="10" rx="2" fill="#161b22"/>
<rect x="246" y="77" width="10" height="10" rx="2" fill="#161b22"/>
<rect class="on" style="animation-delay:0.72s" x="259" y="77" width="10" height="10" rx="2" fill="#39d353"/>
<rect x="272" y="77" width="10" height="10" rx="2" fill="#161b22"/>
<rect class="on" style="animation-delay:0.81s" x="285" y="77" width="10" height="10" rx="2" fill="#39d353"/>
<rect x="298" y="77" width="10" height="10" rx="2" fill="#161b22"/>
<rect x="311" y="77" width="10" height="10" rx="2" fill="#161b22"/>
<rect class="on" style="animation-delay:0.945s" x="324" y="77" width="10" height="10" rx="2" fill="#39d353"/>
<rect x="337" y="77" width="10" height="10" rx="2" fill="#161b22"/>
<rect x="350" y="77" width="10" height="10" rx="2" fill="#161b22"/>
<rect class="on" style="animation-delay:1.08s" x="363" y="77" width="10" height="10" rx="2" fill="#39d353"/>
<rect x="376" y="77" width="10" height="10" rx="2" fill="#161b22"/>
<rect x="389" y="77" width="10" height="10" rx="2" fill="#161b22"/>
<rect x="402" y="77" width="10" height="10" rx="2" fill="#161b22"/>
<rect class="on" style="animation-delay:1.26s" x="415" y="77" width="10" height="10" rx="2" fill="#39d353"/>
<rect x="428" y="77" width="10" height="10" rx="2" fill="#161b22"/>
<rect class="on" style="animation-delay:1.35s" x="441" y="77" width="10" height="10" rx="2" fill="#39d353"/>
<rect x="454" y="77" width="10" height="10" rx="2" fill="#161b22"/>
<rect x="467" y="77" width="10" height="10" rx="2" fill="#161b22"/>
<rect x="480" y="77" width="10" height="10" rx="2" fill="#161b22"/>
<rect class="on" style="animation-delay:1.53s" x="493" y="77" width="10" height="10" rx="2" fill="#39d353"/>
<rect x="506" y="77" width="10" height="10" rx="2" fill="#161b22"/>
<rect x="519" y="77" width="10" height="10" rx="2" fill="#161b22"/>
<rect x="532" y="77" width="10" height="10" rx="2" fill="#161b22"/>
<rect x="545" y="77" width="10" height="10" rx="2" fill="#161b22"/>
<rect x="558" y="77" width="10" height="10" rx="2" fill="#161b22"/>
<rect class="on" style="animation-delay:1.8s" x="571" y="77" width="10" height="10" rx="2" fill="#39d353"/>
<rect x="584" y="77" width="10" height="10" rx="2" fill="#161b22"/>
<rect class="on" style="animation-delay:1.89s" x="597" y="77" width="10" height="10" rx="2" fill="#39d353"/>
<rect x="610" y="77" width="10" height="10" rx="2" fill="#161b22"/>
<rect x="623" y="77" width="10" height="10" rx="2" fill="#161b22"/>
<rect x="636" y="77" width="10" height="10" rx="2" fill="#161b22"/>
<rect class="on" style="animation-delay:2.07s" x="649" y="77" width="10" height="10" rx="2" fill="#39d353"/>
<rect x="662" y="77" width="10" height="10" rx="2" fill="#161b22"/>
<rect x="675" y="77" width="10" height="10" rx="2" fill="#161b22"/>
<rect x="688" y="77" width="10" height="10" rx="2" fill="#161b22"/>
<rect x="12" y="90" width="10" height="10" rx="2" fill="#161b22"/>
<rect x="25" y="90" width="10" height="10" rx="2" fill="#161b22"/>
<rect x="38" y="90" width="10" height="10" rx="2" fill="#161b22"/>
<rect class="on" style="animation-delay:0.0s" x="51" y="90" width="10" height="10" rx="2" fill="#39d353"/>
<rect x="64" y="90" width="10" height="10" rx="2" fill="#161b22"/>
<rect x="77" y="90" width="10" height="10" rx="2" fill="#161b22"/>
<rect x="90" y="90" width="10" height="10" rx="2" fill="#161b22"/>
<rect x="103" y="90" width="10" height="10" rx="2" fill="#161b22"/>
<rect x="116" y="90" width="10" height="10" rx="2" fill="#161b22"/>
<rect class="on" style="animation-delay:0.27s" x="129" y="90" width="10" height="10" rx="2" fill="#39d353"/>
<rect x="142" y="90" width="10" height="10" rx="2" fill="#161b22"/>
<rect x="155" y="90" width="10" height="10" rx="2" fill="#161b22"/>
<rect x="168" y="90" width="10" height="10" rx="2" fill="#161b22"/>
<rect class="on" style="animation-delay:0.45s" x="181" y="90" width="10" height="10" rx="2" fill="#39d353"/>
<rect x="194" y="90" width="10" height="10" rx="2" fill="#161b22"/>
<rect x="207" y="90" width="10" height="10" rx="2" fill="#161b22"/>
<rect class="on" style="animation-delay:0.585s" x="220" y="90" width="10" height="10" rx="2" fill="#39d353"/>
<rect class="on" style="animation-delay:0.63s" x="233" y="90" width="10" height="10" rx="2" fill="#39d353"/>
<rect class="on" style="animation-delay:0.675s" x="246" y="90" width="10" height="10" rx="2" fill="#39d353"/>
<rect x="259" y="90" width="10" height="10" rx="2" fill="#161b22"/>
<rect x="272" y="90" width="10" height="10" rx="2" fill="#161b22"/>
<rect class="on" style="animation-delay:0.81s" x="285" y="90" width="10" height="10" rx="2" fill="#39d353"/>
<rect class="on" style="animation-delay:0.855s" x="298" y="90" width="10" height="10" rx="2" fill="#39d353"/>
<rect class="on" style="animation-delay:0.9s" x="311" y="90" width="10" height="10" rx="2" fill="#39d353"/>
<rect x="324" y="90" width="10" height="10" rx="2" fill="#161b22"/>
<rect x="337" y="90" width="10" height="10" rx="2" fill="#161b22"/>
<rect x="350" y="90" width="10" height="10" rx="2" fill="#161b22"/>
<rect class="on" style="animation-delay:1.08s" x="363" y="90" width="10" height="10" rx="2" fill="#39d353"/>
<rect x="376" y="90" width="10" height="10" rx="2" fill="#161b22"/>
<rect x="389" y="90" width="10" height="10" rx="2" fill="#161b22"/>
<rect x="402" y="90" width="10" height="10" rx="2" fill="#161b22"/>
<rect class="on" style="animation-delay:1.26s" x="415" y="90" width="10" height="10" rx="2" fill="#39d353"/>
<rect x="428" y="90" width="10" height="10" rx="2" fill="#161b22"/>
<rect x="441" y="90" width="10" height="10" rx="2" fill="#161b22"/>
<rect class="on" style="animation-delay:1.395s" x="454" y="90" width="10" height="10" rx="2" fill="#39d353"/>
<rect class="on" style="animation-delay:1.44s" x="467" y="90" width="10" height="10" rx="2" fill="#39d353"/>
<rect class="on" style="animation-delay:1.485s" x="480" y="90" width="10" height="10" rx="2" fill="#39d353"/>
<rect x="493" y="90" width="10" height="10" rx="2" fill="#161b22"/>
<rect x="506" y="90" width="10" height="10" rx="2" fill="#161b22"/>
<rect class="on" style="animation-delay:1.62s" x="519" y="90" width="10" height="10" rx="2" fill="#39d353"/>
<rect class="on" style="animation-delay:1.665s" x="532" y="90" width="10" height="10" rx="2" fill="#39d353"/>
<rect class="on" style="animation-delay:1.71s" x="545" y="90" width="10" height="10" rx="2" fill="#39d353"/>
<rect class="on" style="animation-delay:1.755s" x="558" y="90" width="10" height="10" rx="2" fill="#39d353"/>
<rect x="571" y="90" width="10" height="10" rx="2" fill="#161b22"/>
<rect x="584" y="90" width="10" height="10" rx="2" fill="#161b22"/>
<rect class="on" style="animation-delay:1.89s" x="597" y="90" width="10" height="10" rx="2" fill="#39d353"/>
<rect x="610" y="90" width="10" height="10" rx="2" fill="#161b22"/>
<rect x="623" y="90" width="10" height="10" rx="2" fill="#161b22"/>
<rect x="636" y="90" width="10" height="10" rx="2" fill="#161b22"/>
<rect class="on" style="animation-delay:2.07s" x="649" y="90" width="10" height="10" rx="2" fill="#39d353"/>
<rect x="662" y="90" width="10" height="10" rx="2" fill="#161b22"/>
<rect x="675" y="90" width="10" height="10" rx="2" fill="#161b22"/>
<rect x="688" y="90" width="10" height="10" rx="2" fill="#161b22"/>
</svg>